<svg version="1.1" id="Layer_1" xmlns="http://www.w3.org/2000/svg" xmlns:xlink="http://www.w3.org/1999/xlink" x="0px" y="0px"
	 width="152" height="50.62" viewBox="0 0 5634 1876" enable-background="new 0 0 5634 1876" xml:space="preserve">
<path fill="#FFFFFF" opacity="1.000000" stroke="none" 
	d="
M3956.000000,1878.000000 
	C2637.333252,1878.000000 1319.666626,1878.000000 2.000000,1878.000000 
	C2.000000,1252.666626 2.000000,627.333313 2.000000,2.000000 
	C1880.000000,2.000000 3758.000000,2.000000 5636.000000,2.000000 
	C5636.000000,627.333313 5636.000000,1252.666626 5636.000000,1878.000000 
	C5076.333496,1878.000000 4516.666504,1878.000000 3956.000000,1878.000000 
M3985.143555,827.662170 
	C3985.143555,827.662170 3984.300537,827.558228 3984.083984,826.129150 
	C3978.959717,816.476624 3974.748779,806.187012 3968.542725,797.288940 
	C3948.224365,768.155823 3919.748047,749.609253 3886.753418,737.878235 
	C3855.751709,726.855835 3823.820557,723.093567 3790.803223,725.358032 
	C3766.709717,727.010559 3743.183105,730.819031 3720.600098,738.765015 
	C3650.683838,763.365723 3600.762451,810.408447 3570.241943,877.545471 
	C3547.258545,928.102600 3539.364746,981.485291 3543.435791,1036.939453 
	C3545.691406,1067.664429 3551.152832,1097.553467 3561.763916,1126.373535 
	C3587.719971,1196.871460 3632.644287,1250.701172 3701.720947,1282.506470 
	C3748.047607,1303.837036 3796.857422,1309.387329 3846.877441,1301.242310 
	C3887.438721,1294.637573 3923.184570,1276.462158 3954.855957,1250.460815 
	C3965.286377,1241.897705 3974.975342,1232.431152 3985.840332,1222.622192 
	C3986.056152,1225.010132 3986.305908,1226.512939 3986.309814,1228.016235 
	C3986.342285,1240.681274 3986.055420,1253.353638 3986.395996,1266.009644 
	C3986.896973,1284.636353 3998.309570,1295.647339 4016.653320,1295.671143 
	C4041.316895,1295.703003 4065.980469,1295.739258 4090.643799,1295.657349 
	C4106.969727,1295.603149 4118.180176,1285.172974 4119.617188,1268.846069 
	C4119.850098,1266.199707 4119.669434,1263.516235 4119.669434,1260.849976 
	C4119.670410,1096.537842 4119.670410,932.225769 4119.670410,767.913635 
	C4119.670410,766.247192 4119.705566,764.579895 4119.664551,762.914429 
	C4119.225098,745.004456 4107.990234,733.786804 4090.042969,733.696289 
	C4065.380127,733.571838 4040.715820,733.579895 4016.053467,733.752930 
	C4012.155273,733.780273 4008.025146,734.350220 4004.414551,735.740173 
	C3991.132568,740.852905 3986.478760,751.659119 3986.348877,765.003296 
	C3986.144775,785.994446 3986.064209,806.986694 3985.143555,827.662170 
M376.551758,1046.208984 
	C376.851654,1047.160156 377.251282,1048.092285 377.437103,1049.065186 
	C388.435913,1106.651123 407.867065,1161.208374 435.636871,1212.864868 
	C469.920074,1276.637085 514.719788,1331.866455 569.847534,1378.686401 
	C636.065063,1434.924927 711.151855,1474.322998 795.262817,1496.356445 
	C830.683655,1505.635132 866.634338,1511.746582 903.216675,1513.632446 
	C921.733215,1514.587036 940.272766,1515.757690 958.840149,1514.344482 
	C980.681641,1512.681885 1002.688965,1512.286377 1024.346558,1509.315430 
	C1064.588745,1503.795044 1103.865479,1493.774658 1141.992432,1479.591187 
	C1197.300415,1459.016235 1248.277344,1430.595825 1294.751221,1394.249146 
	C1321.326782,1373.464722 1324.990967,1335.658691 1310.199463,1310.265137 
	C1289.954102,1275.507812 1246.505615,1265.656494 1213.630371,1288.988892 
	C1193.254517,1303.449951 1172.836060,1317.710205 1150.837280,1329.620972 
	C1094.433472,1360.159668 1034.088989,1377.206177 970.239075,1381.550415 
	C932.288940,1384.132568 894.536499,1381.475952 857.152771,1374.141968 
	C770.876770,1357.216309 696.364136,1317.700073 633.373718,1256.652710 
	C593.803772,1218.303101 562.559387,1173.888794 539.589233,1123.657471 
	C516.796326,1073.813721 503.869812,1021.483582 500.607513,966.946899 
	C499.362335,946.131042 500.698822,925.102417 501.779999,904.218445 
	C503.786682,865.456909 512.653564,828.062195 525.681763,791.573364 
	C551.770996,718.503540 594.584412,656.966187 653.032471,606.117432 
	C700.685608,564.660095 754.865234,535.011902 815.233765,516.750427 
	C853.900513,505.053711 893.574036,498.758911 933.954895,498.546814 
	C954.824402,498.437164 975.778687,499.871552 996.564880,501.923340 
	C1027.411499,504.968140 1057.419922,512.359070 1086.692505,522.556030 
	C1132.000854,538.338989 1173.511597,561.157776 1211.603638,590.286194 
	C1219.624878,596.419922 1228.570557,600.497742 1238.546509,602.707275 
	C1268.063721,609.244934 1298.600708,594.848938 1311.968628,567.542786 
	C1324.160400,542.639160 1320.534912,507.240173 1294.743042,487.100281 
	C1232.311157,438.349701 1162.787964,403.896423 1086.074585,383.829987 
	C1050.603760,374.551636 1014.559570,368.888611 978.103760,366.575134 
	C951.254761,364.871338 924.232178,364.336792 897.374695,367.674652 
	C874.009766,370.578430 850.420776,372.417328 827.368042,376.950256 
	C770.239807,388.183594 716.054688,407.999603 664.999512,436.193115 
	C623.134155,459.311890 584.620483,487.080200 549.776489,519.784058 
	C513.220276,554.094971 481.263519,592.289612 454.554810,634.831665 
	C426.427643,679.633118 404.837372,727.357727 390.087463,778.123169 
	C374.603363,831.415649 366.480774,885.773193 367.665771,941.384827 
	C367.977905,956.032654 367.353210,970.759155 368.672241,985.312439 
	C370.466614,1005.109863 373.714752,1024.775513 376.551758,1046.208984 
M2567.245605,1100.207886 
	C2561.205811,1105.930786 2555.551758,1112.138428 2549.065186,1117.299805 
	C2497.316650,1158.475708 2439.557373,1181.497559 2372.166260,1176.456177 
	C2335.747803,1173.731689 2301.465088,1164.356079 2269.940918,1146.051270 
	C2227.056885,1121.150269 2193.981934,1086.821899 2173.736572,1041.142334 
	C2151.565186,991.116882 2148.546631,939.064026 2159.234619,885.937500 
	C2169.092285,836.937195 2193.712158,796.198914 2230.670654,763.015198 
	C2271.708740,726.168579 2320.937500,709.313049 2375.328857,706.435852 
	C2398.300537,705.220642 2421.189941,707.101257 2443.630615,712.371643 
	C2493.859131,724.168213 2536.088623,749.031433 2567.547852,790.472717 
	C2577.640869,803.768494 2597.648438,810.629028 2615.535156,800.190796 
	C2631.619873,790.803955 2647.872314,781.702576 2663.906006,772.230042 
	C2685.713623,759.346130 2690.453857,737.555298 2675.213623,717.252747 
	C2666.052246,705.048340 2656.222168,693.193054 2645.541992,682.310120 
	C2613.224121,649.379761 2575.319336,624.452209 2532.906494,606.390503 
	C2493.057617,589.420715 2451.226562,580.780457 2408.168457,578.495911 
	C2381.937988,577.104126 2355.678955,578.500427 2329.598633,582.226562 
	C2295.172852,587.144958 2262.040771,596.512329 2230.441162,611.051147 
	C2182.213135,633.240662 2141.553467,665.364502 2107.013916,705.494080 
	C2052.851807,768.421692 2026.198730,842.019592 2022.429932,924.346497 
	C2021.396118,946.931213 2022.752197,969.494995 2025.614502,991.974426 
	C2030.439209,1029.866577 2040.793091,1066.064819 2057.474609,1100.461426 
	C2077.619385,1141.999268 2105.271484,1177.759888 2139.290283,1208.890137 
	C2175.417725,1241.950439 2216.567383,1266.310181 2262.832764,1282.098145 
	C2300.203613,1294.850952 2338.808838,1301.254639 2378.161621,1302.092896 
	C2398.043701,1302.516357 2418.190430,1301.948364 2437.848633,1299.195312 
	C2486.718506,1292.350952 2532.505615,1275.735352 2575.500488,1251.521484 
	C2609.117188,1232.589478 2639.484619,1209.427368 2664.648926,1180.082764 
	C2701.384766,1137.244995 2723.209229,1086.951172 2736.151123,1032.513306 
	C2744.763672,996.286133 2744.095947,959.304199 2744.174072,922.429932 
	C2744.182861,918.263123 2742.889404,913.798767 2741.118652,909.972839 
	C2732.372070,891.075256 2717.109375,882.318176 2696.520264,882.318909 
	C2606.190186,882.322083 2515.859863,882.320251 2425.529785,882.320862 
	C2423.863281,882.320862 2422.188965,882.225708 2420.531250,882.348816 
	C2400.988037,883.800842 2386.778809,898.098511 2386.400146,917.313843 
	C2386.065186,934.306580 2386.012207,951.318909 2386.420166,968.308533 
	C2386.840088,985.802429 2399.086670,999.164062 2416.358887,1001.669922 
	C2420.292725,1002.240601 2424.325195,1002.307129 2428.312256,1002.309753 
	C2486.976807,1002.347961 2545.641602,1002.327698 2604.306152,1002.357178 
	C2607.794678,1002.358948 2611.283447,1002.664795 2615.969238,1002.885620 
	C2613.028809,1013.677246 2610.913086,1023.384888 2607.734619,1032.731079 
	C2599.268799,1057.624023 2585.670410,1079.574219 2567.245605,1100.207886 
M656.870239,711.912415 
	C636.146240,738.572876 618.905334,767.242249 605.928589,798.501404 
	C589.322021,838.504272 580.783936,880.280762 578.480042,923.322144 
	C577.272156,945.887512 578.522034,968.468201 581.686890,990.929565 
	C588.019531,1035.873901 602.185242,1078.147949 624.348022,1117.716309 
	C654.889221,1172.243286 696.858704,1215.975098 749.696106,1249.240845 
	C801.062622,1281.580444 857.365417,1299.038696 917.695984,1303.579834 
	C943.598450,1305.529541 969.465393,1304.089722 995.204834,1300.332764 
	C1031.309204,1295.062744 1065.800537,1284.594360 1098.715210,1268.879883 
	C1144.709106,1246.920898 1184.202393,1216.438477 1217.507324,1177.938477 
	C1256.295410,1133.100098 1282.992065,1081.913574 1296.020142,1024.045532 
	C1300.519897,1004.058289 1303.117554,983.572937 1305.390015,963.182068 
	C1306.634399,952.016907 1306.867798,940.322205 1304.994995,929.301636 
	C1298.395752,890.466919 1265.236816,873.189575 1238.408691,873.501892 
	C1189.426025,874.072205 1140.432129,873.663940 1091.442871,873.664062 
	C1064.115601,873.664062 1036.783691,873.348999 1009.462280,873.751465 
	C980.926270,874.171814 959.557739,887.076599 947.643494,913.228149 
	C927.829590,956.719055 958.222046,1007.413940 1009.611206,1007.636475 
	C1056.599976,1007.839905 1103.590332,1007.679565 1150.579956,1007.679565 
	C1154.095093,1007.679565 1157.610229,1007.679626 1162.068359,1007.679626 
	C1160.332153,1012.817810 1159.211060,1016.593384 1157.795898,1020.255371 
	C1135.719482,1077.387451 1097.428223,1120.157593 1042.558105,1147.177002 
	C996.757568,1169.730347 948.209778,1176.417725 898.004333,1165.966431 
	C823.862732,1150.532349 769.767700,1108.111328 735.603027,1040.981934 
	C715.416626,1001.318298 708.324646,958.820801 713.582825,914.300598 
	C720.484009,855.869141 745.914673,806.816467 789.724426,768.240173 
	C839.789673,724.155640 898.770142,705.135132 965.642456,711.609924 
	C1001.079468,715.041016 1033.609497,726.631348 1063.808105,745.114868 
	C1087.875610,759.845825 1117.144287,758.912537 1139.768677,742.678223 
	C1177.123901,715.873596 1175.474487,656.328003 1135.563232,631.676147 
	C1080.289917,597.535583 1020.257141,579.574219 955.668213,576.423828 
	C928.047119,575.076660 900.489258,577.482178 873.371033,582.601013 
	C786.005127,599.092041 714.107056,641.953979 656.870239,711.912415 
M3428.695312,1090.272827 
	C3420.005859,1085.379883 3411.431641,1080.266235 3402.601318,1075.642212 
	C3386.683350,1067.306396 3373.047607,1070.810669 3362.835938,1085.546143 
	C3324.991455,1140.156250 3271.251221,1166.853394 3206.589600,1173.497070 
	C3178.671387,1176.365601 3150.751709,1174.034546 3123.417969,1167.598267 
	C3058.104980,1152.218628 3009.535400,1114.464966 2978.157959,1055.412354 
	C2951.761230,1005.734131 2946.659912,952.135437 2954.755615,897.382874 
	C2962.540283,844.736633 2986.038818,799.753662 3025.766846,763.605835 
	C3047.266113,744.043945 3071.693604,729.601257 3099.064209,720.217590 
	C3134.735840,707.988037 3171.395264,704.013489 3208.987793,707.609558 
	C3244.397705,710.996948 3277.094971,721.858826 3306.958740,741.225952 
	C3328.987061,755.511841 3347.873535,773.014587 3362.225586,795.142944 
	C3366.159912,801.208862 3371.256104,805.595459 3378.101807,808.123474 
	C3387.822754,811.713196 3396.401367,808.659668 3404.671875,803.895935 
	C3424.553955,792.443726 3444.443115,781.000305 3464.189697,769.317383 
	C3481.574951,759.031799 3485.294922,742.926270 3474.141113,726.124146 
	C3458.415771,702.436584 3439.806641,681.214661 3418.053223,662.887939 
	C3351.660400,606.953247 3274.888916,579.024414 3188.170166,578.391052 
	C3177.231201,578.311218 3166.287598,579.263367 3155.342529,579.635864 
	C3122.904785,580.739685 3091.461182,587.262512 3060.751709,597.396179 
	C3002.592285,616.587952 2953.628174,649.717407 2912.415771,694.909912 
	C2850.343018,762.977356 2822.022949,843.814819 2820.356445,934.933044 
	C2819.906250,959.550537 2822.059326,984.013306 2826.017578,1008.292847 
	C2831.725098,1043.299927 2842.392334,1076.837891 2858.520264,1108.374146 
	C2877.595459,1145.673096 2902.842529,1178.393066 2933.479248,1207.175171 
	C2970.221680,1241.693237 3012.304199,1266.949829 3059.895020,1283.094604 
	C3095.997559,1295.342163 3133.315918,1301.122192 3171.348633,1302.293823 
	C3197.644531,1303.103882 3223.874512,1301.859741 3249.798584,1297.183594 
	C3287.321045,1290.415649 3323.056885,1278.398071 3356.595215,1260.010986 
	C3404.093994,1233.970093 3443.922363,1199.474731 3473.994141,1154.166992 
	C3485.452637,1136.903076 3481.690186,1120.975220 3463.708496,1110.359131 
	C3452.543213,1103.767578 3441.179199,1097.512451 3428.695312,1090.272827 
M4889.668945,617.000122 
	C4889.668945,603.667480 4889.711914,590.334656 4889.658691,577.002258 
	C4889.585449,558.661438 4878.796387,547.723389 4860.667480,547.680664 
	C4836.667480,547.624023 4812.629395,548.489624 4788.681641,547.373596 
	C4773.051270,546.645203 4758.068848,558.977722 4758.098145,577.666870 
	C4758.456055,806.997864 4758.429688,1036.329712 4758.126953,1265.660889 
	C4758.104980,1282.395996 4770.400391,1296.522705 4788.782715,1295.875488 
	C4812.086914,1295.054810 4835.442383,1295.693115 4858.775391,1295.672241 
	C4878.972168,1295.654175 4889.664551,1285.088013 4889.666016,1265.149536 
	C4889.673340,1174.483643 4889.604980,1083.817505 4889.710938,993.151733 
	C4889.739746,968.076477 4893.031738,943.450928 4902.167969,919.906189 
	C4909.233398,901.697815 4919.245117,885.290283 4933.806152,872.085754 
	C4959.104492,849.144226 4989.510254,840.229309 5022.994629,841.801453 
	C5069.264648,843.973938 5104.024414,864.955200 5125.224609,906.885254 
	C5138.574219,933.286926 5143.420410,961.701172 5143.534668,990.823669 
	C5143.893066,1082.488281 5143.930664,1174.156494 5143.427734,1265.819702 
	C5143.334961,1282.775513 5156.498535,1296.401978 5173.220215,1295.874023 
	C5197.528809,1295.106445 5221.880859,1295.588989 5246.212891,1295.725952 
	C5254.413574,1295.772095 5261.048340,1292.787476 5266.570312,1286.906738 
	C5273.219238,1279.826538 5274.383301,1271.147583 5274.375977,1261.910278 
	C5274.305176,1171.577637 5274.428711,1081.244751 5274.244141,990.912598 
	C5274.211426,974.981079 5273.390137,959.024902 5272.266602,943.127258 
	C5269.825684,908.578552 5260.881836,875.810730 5244.761230,845.011108 
	C5218.212402,794.287659 5177.302246,760.919312 5122.795410,744.351685 
	C5082.345703,732.056824 5041.064941,730.924500 4999.621094,738.362549 
	C4962.367676,745.048523 4928.325195,759.348633 4898.733887,783.411987 
	C4896.081055,785.569458 4893.337402,787.615112 4889.668945,790.463501 
	C4889.668945,732.275391 4889.668945,675.637756 4889.668945,617.000122 
M4355.530762,1151.328979 
	C4352.310059,1144.799805 4348.424805,1138.506348 4346.004883,1131.692749 
	C4340.715332,1116.799927 4332.508301,1109.939819 4316.470215,1109.749023 
	C4290.808594,1109.443604 4265.139160,1109.850952 4239.476562,1109.605835 
	C4221.221680,1109.431519 4206.205566,1125.495972 4210.687500,1146.021973 
	C4221.163574,1194.002075 4247.933105,1230.729492 4287.408691,1258.698730 
	C4325.528809,1285.706909 4368.714355,1299.483765 4414.781738,1303.406494 
	C4459.893555,1307.247681 4504.488281,1303.488647 4547.278809,1287.102417 
	C4577.898926,1275.376587 4605.115234,1258.355469 4626.128418,1232.852905 
	C4653.399902,1199.755005 4665.100098,1161.783325 4660.420410,1118.799316 
	C4656.177734,1079.829346 4639.237305,1048.034180 4608.967285,1023.141846 
	C4584.403320,1002.942444 4556.143555,989.716614 4526.243164,980.138611 
	C4492.405762,969.299744 4458.085449,959.977173 4424.076172,949.664368 
	C4405.605957,944.063599 4387.328125,937.741211 4371.269043,926.606201 
	C4359.385254,918.366272 4350.237305,908.148560 4349.688965,892.645264 
	C4348.966797,872.211060 4359.167480,855.924988 4378.611328,848.130005 
	C4407.269531,836.640808 4436.751953,835.227356 4466.466797,843.464294 
	C4494.101562,851.124756 4513.264160,867.848145 4520.645996,896.453491 
	C4521.221680,898.683960 4522.280273,900.809875 4523.274902,902.908386 
	C4528.002930,912.884766 4536.028809,918.179871 4546.958496,918.265198 
	C4573.288574,918.470764 4599.621582,918.279419 4625.953125,918.355347 
	C4640.786133,918.398132 4653.780762,903.756165 4652.263672,891.293823 
	C4651.143555,882.096313 4650.133301,872.773254 4647.749512,863.860657 
	C4635.715820,818.876648 4610.335449,783.595215 4570.555176,758.837646 
	C4530.578613,733.957947 4486.170898,725.755920 4440.150879,724.576477 
	C4423.320801,724.145142 4406.302734,725.787903 4389.567871,727.986267 
	C4351.839355,732.942505 4316.528320,744.996460 4284.938477,766.785706 
	C4225.002930,808.125916 4203.672363,872.999817 4223.612793,939.822571 
	C4234.251465,975.474854 4258.038086,1000.771545 4289.131836,1019.804932 
	C4320.663086,1039.105591 4355.515137,1050.119751 4390.765137,1060.108765 
	C4418.564941,1067.986328 4446.431152,1075.652832 4474.070312,1084.062256 
	C4489.690918,1088.814941 4504.640137,1095.428955 4517.344238,1106.133911 
	C4532.157715,1118.615845 4536.008301,1137.364868 4527.366211,1154.815063 
	C4520.604492,1168.469116 4508.866211,1176.234131 4495.276855,1181.798462 
	C4474.100098,1190.469238 4451.814453,1191.843506 4429.530762,1189.946045 
	C4400.340332,1187.460693 4374.755859,1176.638916 4355.530762,1151.328979 
M1595.822266,972.816284 
	C1595.285400,979.755859 1594.932739,986.715576 1594.176636,993.631165 
	C1592.048950,1013.089722 1590.768311,1032.710693 1587.341675,1051.944702 
	C1575.963501,1115.810791 1556.467407,1177.077393 1526.749634,1234.955078 
	C1519.977173,1248.144653 1517.425659,1262.176880 1519.654663,1277.323608 
	C1524.449829,1309.907959 1552.697876,1334.678101 1586.671753,1333.522705 
	C1612.771484,1332.635376 1632.975464,1320.338989 1644.746094,1296.157227 
	C1651.009033,1283.290894 1657.362061,1270.453613 1663.124023,1257.361084 
	C1676.802368,1226.280396 1688.613159,1194.484985 1697.975464,1161.828247 
	C1710.627808,1117.694580 1720.466064,1072.972290 1724.269897,1027.125732 
	C1726.463867,1000.682495 1729.101196,974.198059 1729.466797,947.703674 
	C1729.809692,922.853027 1727.522949,897.959534 1726.214355,873.094360 
	C1724.675659,843.861084 1719.831177,815.086304 1714.288940,786.377930 
	C1702.505859,725.341370 1683.422119,666.697754 1657.238403,610.367859 
	C1651.502197,598.027344 1646.104126,585.217346 1638.312866,574.206848 
	C1619.744751,547.966797 1582.428833,540.060669 1554.253418,555.297852 
	C1524.201904,571.549500 1512.742188,603.646851 1522.966797,635.492126 
	C1527.208618,648.703247 1534.228027,661.024231 1540.006470,673.739929 
	C1572.544434,745.339600 1590.208862,820.694092 1595.522949,898.918457 
	C1597.145264,922.798157 1595.871094,946.874512 1595.822266,972.816284 
M1494.194214,780.808716 
	C1485.809204,752.021790 1475.916504,723.807556 1462.569092,696.885742 
	C1457.375122,686.409424 1449.330688,678.347290 1439.795776,672.205994 
	C1416.122437,656.958618 1383.342407,659.081787 1363.042358,675.756226 
	C1336.798706,697.312805 1332.344482,730.111694 1342.860352,754.040710 
	C1355.729736,783.324829 1366.535522,813.279358 1373.350464,844.619446 
	C1378.936157,870.307556 1382.497803,896.284912 1383.638794,922.487427 
	C1384.927856,952.088379 1382.819702,981.586304 1378.117554,1010.881409 
	C1371.863525,1049.845459 1360.994385,1087.475464 1344.110718,1123.123169 
	C1328.895630,1155.247559 1341.436646,1197.225098 1375.272827,1213.073608 
	C1410.294189,1229.477295 1450.927002,1211.902588 1465.032593,1179.650757 
	C1482.539795,1139.621460 1496.583618,1098.514526 1505.086182,1055.582642 
	C1510.639526,1027.541748 1514.473267,999.270081 1515.703613,970.731201 
	C1517.381836,931.801697 1516.220581,892.966614 1510.130127,854.365051 
	C1506.296143,830.064697 1501.768799,805.941528 1494.194214,780.808716 
z"/>
<path fill="#017DFF" opacity="1.000000" stroke="none" 
	d="
M376.445618,1045.353271 
	C373.714752,1024.775513 370.466614,1005.109863 368.672241,985.312439 
	C367.353210,970.759155 367.977905,956.032654 367.665771,941.384827 
	C366.480774,885.773193 374.603363,831.415649 390.087463,778.123169 
	C404.837372,727.357727 426.427643,679.633118 454.554810,634.831665 
	C481.263519,592.289612 513.220276,554.094971 549.776489,519.784058 
	C584.620483,487.080200 623.134155,459.311890 664.999512,436.193115 
	C716.054688,407.999603 770.239807,388.183594 827.368042,376.950256 
	C850.420776,372.417328 874.009766,370.578430 897.374695,367.674652 
	C924.232178,364.336792 951.254761,364.871338 978.103760,366.575134 
	C1014.559570,368.888611 1050.603760,374.551636 1086.074585,383.829987 
	C1162.787964,403.896423 1232.311157,438.349701 1294.743042,487.100281 
	C1320.534912,507.240173 1324.160400,542.639160 1311.968628,567.542786 
	C1298.600708,594.848938 1268.063721,609.244934 1238.546509,602.707275 
	C1228.570557,600.497742 1219.624878,596.419922 1211.603638,590.286194 
	C1173.511597,561.157776 1132.000854,538.338989 1086.692505,522.556030 
	C1057.419922,512.359070 1027.411499,504.968140 996.564880,501.923340 
	C975.778687,499.871552 954.824402,498.437164 933.954895,498.546814 
	C893.574036,498.758911 853.900513,505.053711 815.233765,516.750427 
	C754.865234,535.011902 700.685608,564.660095 653.032471,606.117432 
	C594.584412,656.966187 551.770996,718.503540 525.681763,791.573364 
	C512.653564,828.062195 503.786682,865.456909 501.779999,904.218445 
	C500.698822,925.102417 499.362335,946.131042 500.607513,966.946899 
	C503.869812,1021.483582 516.796326,1073.813721 539.589233,1123.657471 
	C562.559387,1173.888794 593.803772,1218.303101 633.373718,1256.652710 
	C696.364136,1317.700073 770.876770,1357.216309 857.152771,1374.141968 
	C894.536499,1381.475952 932.288940,1384.132568 970.239075,1381.550415 
	C1034.088989,1377.206177 1094.433472,1360.159668 1150.837280,1329.620972 
	C1172.836060,1317.710205 1193.254517,1303.449951 1213.630371,1288.988892 
	C1246.505615,1265.656494 1289.954102,1275.507812 1310.199463,1310.265137 
	C1324.990967,1335.658691 1321.326782,1373.464722 1294.751221,1394.249146 
	C1248.277344,1430.595825 1197.300415,1459.016235 1141.992432,1479.591187 
	C1103.865479,1493.774658 1064.588745,1503.795044 1024.346558,1509.315430 
	C1002.688965,1512.286377 980.681641,1512.681885 958.840149,1514.344482 
	C940.272766,1515.757690 921.733215,1514.587036 903.216675,1513.632446 
	C866.634338,1511.746582 830.683655,1505.635132 795.262817,1496.356445 
	C711.151855,1474.322998 636.065063,1434.924927 569.847534,1378.686401 
	C514.719788,1331.866455 469.920074,1276.637085 435.636871,1212.864868 
	C407.867065,1161.208374 388.435913,1106.651123 377.437103,1049.065186 
	C377.251282,1048.092285 376.851654,1047.160156 376.445618,1045.353271 
z"/>
<path fill="#012DB8" opacity="1.000000" stroke="none" 
	d="
M2567.737305,1099.697266 
	C2585.670410,1079.574219 2599.268799,1057.624023 2607.734619,1032.731079 
	C2610.913086,1023.384888 2613.028809,1013.677246 2615.969238,1002.885620 
	C2611.283447,1002.664795 2607.794678,1002.358948 2604.306152,1002.357178 
	C2545.641602,1002.327698 2486.976807,1002.347961 2428.312256,1002.309753 
	C2424.325195,1002.307129 2420.292725,1002.240601 2416.358887,1001.669922 
	C2399.086670,999.164062 2386.840088,985.802429 2386.420166,968.308533 
	C2386.012207,951.318909 2386.065186,934.306580 2386.400146,917.313843 
	C2386.778809,898.098511 2400.988037,883.800842 2420.531250,882.348816 
	C2422.188965,882.225708 2423.863281,882.320862 2425.529785,882.320862 
	C2515.859863,882.320251 2606.190186,882.322083 2696.520264,882.318909 
	C2717.109375,882.318176 2732.372070,891.075256 2741.118652,909.972839 
	C2742.889404,913.798767 2744.182861,918.263123 2744.174072,922.429932 
	C2744.095947,959.304199 2744.763672,996.286133 2736.151123,1032.513306 
	C2723.209229,1086.951172 2701.384766,1137.244995 2664.648926,1180.082764 
	C2639.484619,1209.427368 2609.117188,1232.589478 2575.500488,1251.521484 
	C2532.505615,1275.735352 2486.718506,1292.350952 2437.848633,1299.195312 
	C2418.190430,1301.948364 2398.043701,1302.516357 2378.161621,1302.092896 
	C2338.808838,1301.254639 2300.203613,1294.850952 2262.832764,1282.098145 
	C2216.567383,1266.310181 2175.417725,1241.950439 2139.290283,1208.890137 
	C2105.271484,1177.759888 2077.619385,1141.999268 2057.474609,1100.461426 
	C2040.793091,1066.064819 2030.439209,1029.866577 2025.614502,991.974426 
	C2022.752197,969.494995 2021.396118,946.931213 2022.429932,924.346497 
	C2026.198730,842.019592 2052.851807,768.421692 2107.013916,705.494080 
	C2141.553467,665.364502 2182.213135,633.240662 2230.441162,611.051147 
	C2262.040771,596.512329 2295.172852,587.144958 2329.598633,582.226562 
	C2355.678955,578.500427 2381.937988,577.104126 2408.168457,578.495911 
	C2451.226562,580.780457 2493.057617,589.420715 2532.906494,606.390503 
	C2575.319336,624.452209 2613.224121,649.379761 2645.541992,682.310120 
	C2656.222168,693.193054 2666.052246,705.048340 2675.213623,717.252747 
	C2690.453857,737.555298 2685.713623,759.346130 2663.906006,772.230042 
	C2647.872314,781.702576 2631.619873,790.803955 2615.535156,800.190796 
	C2597.648438,810.629028 2577.640869,803.768494 2567.547852,790.472717 
	C2536.088623,749.031433 2493.859131,724.168213 2443.630615,712.371643 
	C2421.189941,707.101257 2398.300537,705.220642 2375.328857,706.435852 
	C2320.937500,709.313049 2271.708740,726.168579 2230.670654,763.015198 
	C2193.712158,796.198914 2169.092285,836.937195 2159.234619,885.937500 
	C2148.546631,939.064026 2151.565186,991.116882 2173.736572,1041.142334 
	C2193.981934,1086.821899 2227.056885,1121.150269 2269.940918,1146.051270 
	C2301.465088,1164.356079 2335.747803,1173.731689 2372.166260,1176.456177 
	C2439.557373,1181.497559 2497.316650,1158.475708 2549.065186,1117.299805 
	C2555.551758,1112.138428 2561.205811,1105.930786 2567.737305,1099.697266 
z"/>
<path fill="#012DB8" opacity="1.000000" stroke="none" 
	d="
M657.316345,711.354736 
	C714.107056,641.953979 786.005127,599.092041 873.371033,582.601013 
	C900.489258,577.482178 928.047119,575.076660 955.668213,576.423828 
	C1020.257141,579.574219 1080.289917,597.535583 1135.563232,631.676147 
	C1175.474487,656.328003 1177.123901,715.873596 1139.768677,742.678223 
	C1117.144287,758.912537 1087.875610,759.845825 1063.808105,745.114868 
	C1033.609497,726.631348 1001.079468,715.041016 965.642456,711.609924 
	C898.770142,705.135132 839.789673,724.155640 789.724426,768.240173 
	C745.914673,806.816467 720.484009,855.869141 713.582825,914.300598 
	C708.324646,958.820801 715.416626,1001.318298 735.603027,1040.981934 
	C769.767700,1108.111328 823.862732,1150.532349 898.004333,1165.966431 
	C948.209778,1176.417725 996.757568,1169.730347 1042.558105,1147.177002 
	C1097.428223,1120.157593 1135.719482,1077.387451 1157.795898,1020.255371 
	C1159.211060,1016.593384 1160.332153,1012.817810 1162.068359,1007.679626 
	C1157.610229,1007.679626 1154.095093,1007.679565 1150.579956,1007.679565 
	C1103.590332,1007.679565 1056.599976,1007.839905 1009.611206,1007.636475 
	C958.222046,1007.413940 927.829590,956.719055 947.643494,913.228149 
	C959.557739,887.076599 980.926270,874.171814 1009.462280,873.751465 
	C1036.783691,873.348999 1064.115601,873.664062 1091.442871,873.664062 
	C1140.432129,873.663940 1189.426025,874.072205 1238.408691,873.501892 
	C1265.236816,873.189575 1298.395752,890.466919 1304.994995,929.301636 
	C1306.867798,940.322205 1306.634399,952.016907 1305.390015,963.182068 
	C1303.117554,983.572937 1300.519897,1004.058289 1296.020142,1024.045532 
	C1282.992065,1081.913574 1256.295410,1133.100098 1217.507324,1177.938477 
	C1184.202393,1216.438477 1144.709106,1246.920898 1098.715210,1268.879883 
	C1065.800537,1284.594360 1031.309204,1295.062744 995.204834,1300.332764 
	C969.465393,1304.089722 943.598450,1305.529541 917.695984,1303.579834 
	C857.365417,1299.038696 801.062622,1281.580444 749.696106,1249.240845 
	C696.858704,1215.975098 654.889221,1172.243286 624.348022,1117.716309 
	C602.185242,1078.147949 588.019531,1035.873901 581.686890,990.929565 
	C578.522034,968.468201 577.272156,945.887512 578.480042,923.322144 
	C580.783936,880.280762 589.322021,838.504272 605.928589,798.501404 
	C618.905334,767.242249 636.146240,738.572876 657.316345,711.354736 
z"/>
<path fill="#012DB8" opacity="1.000000" stroke="none" 
	d="
M3985.931641,827.978516 
	C3986.064209,806.986694 3986.144775,785.994446 3986.348877,765.003296 
	C3986.478760,751.659119 3991.132568,740.852905 4004.414551,735.740173 
	C4008.025146,734.350220 4012.155273,733.780273 4016.053467,733.752930 
	C4040.715820,733.579895 4065.380127,733.571838 4090.042969,733.696289 
	C4107.990234,733.786804 4119.225098,745.004456 4119.664551,762.914429 
	C4119.705566,764.579895 4119.670410,766.247192 4119.670410,767.913635 
	C4119.670410,932.225769 4119.670410,1096.537842 4119.669434,1260.849976 
	C4119.669434,1263.516235 4119.850098,1266.199707 4119.617188,1268.846069 
	C4118.180176,1285.172974 4106.969727,1295.603149 4090.643799,1295.657349 
	C4065.980469,1295.739258 4041.316895,1295.703003 4016.653320,1295.671143 
	C3998.309570,1295.647339 3986.896973,1284.636353 3986.395996,1266.009644 
	C3986.055420,1253.353638 3986.342285,1240.681274 3986.309814,1228.016235 
	C3986.305908,1226.512939 3986.056152,1225.010132 3985.840332,1222.622192 
	C3974.975342,1232.431152 3965.286377,1241.897705 3954.855957,1250.460815 
	C3923.184570,1276.462158 3887.438721,1294.637573 3846.877441,1301.242310 
	C3796.857422,1309.387329 3748.047607,1303.837036 3701.720947,1282.506470 
	C3632.644287,1250.701172 3587.719971,1196.871460 3561.763916,1126.373535 
	C3551.152832,1097.553467 3545.691406,1067.664429 3543.435791,1036.939453 
	C3539.364746,981.485291 3547.258545,928.102600 3570.241943,877.545471 
	C3600.762451,810.408447 3650.683838,763.365723 3720.600098,738.765015 
	C3743.183105,730.819031 3766.709717,727.010559 3790.803223,725.358032 
	C3823.820557,723.093567 3855.751709,726.855835 3886.753418,737.878235 
	C3919.748047,749.609253 3948.224365,768.155823 3968.542725,797.288940 
	C3974.748779,806.187012 3978.959717,816.476624 3984.097656,827.468994 
	C3985.086182,829.499451 3986.061279,830.190125 3987.036133,830.880737 
	C3986.667969,829.913269 3986.299805,828.945862 3985.931641,827.978516 
M3795.732910,1183.625000 
	C3814.032959,1187.529175 3832.410156,1189.157959 3851.077148,1186.356079 
	C3907.284180,1177.920044 3947.037354,1147.276001 3970.186523,1095.965454 
	C3990.212402,1051.578613 3992.259277,1004.850891 3979.248291,958.479248 
	C3961.308105,894.539307 3919.775146,854.259827 3852.965088,843.596558 
	C3789.031250,833.392334 3724.951172,863.401184 3694.831299,930.446411 
	C3670.683838,984.197510 3670.930908,1038.939209 3694.052246,1092.955688 
	C3713.379150,1138.107910 3745.855225,1169.672241 3795.732910,1183.625000 
z"/>
<path fill="#012DB8" opacity="1.000000" stroke="none" 
	d="
M3429.299805,1090.689575 
	C3441.179199,1097.512451 3452.543213,1103.767578 3463.708496,1110.359131 
	C3481.690186,1120.975220 3485.452637,1136.903076 3473.994141,1154.166992 
	C3443.922363,1199.474731 3404.093994,1233.970093 3356.595215,1260.010986 
	C3323.056885,1278.398071 3287.321045,1290.415649 3249.798584,1297.183594 
	C3223.874512,1301.859741 3197.644531,1303.103882 3171.348633,1302.293823 
	C3133.315918,1301.122192 3095.997559,1295.342163 3059.895020,1283.094604 
	C3012.304199,1266.949829 2970.221680,1241.693237 2933.479248,1207.175171 
	C2902.842529,1178.393066 2877.595459,1145.673096 2858.520264,1108.374146 
	C2842.392334,1076.837891 2831.725098,1043.299927 2826.017578,1008.292847 
	C2822.059326,984.013306 2819.906250,959.550537 2820.356445,934.933044 
	C2822.022949,843.814819 2850.343018,762.977356 2912.415771,694.909912 
	C2953.628174,649.717407 3002.592285,616.587952 3060.751709,597.396179 
	C3091.461182,587.262512 3122.904785,580.739685 3155.342529,579.635864 
	C3166.287598,579.263367 3177.231201,578.311218 3188.170166,578.391052 
	C3274.888916,579.024414 3351.660400,606.953247 3418.053223,662.887939 
	C3439.806641,681.214661 3458.415771,702.436584 3474.141113,726.124146 
	C3485.294922,742.926270 3481.574951,759.031799 3464.189697,769.317383 
	C3444.443115,781.000305 3424.553955,792.443726 3404.671875,803.895935 
	C3396.401367,808.659668 3387.822754,811.713196 3378.101807,808.123474 
	C3371.256104,805.595459 3366.159912,801.208862 3362.225586,795.142944 
	C3347.873535,773.014587 3328.987061,755.511841 3306.958740,741.225952 
	C3277.094971,721.858826 3244.397705,710.996948 3208.987793,707.609558 
	C3171.395264,704.013489 3134.735840,707.988037 3099.064209,720.217590 
	C3071.693604,729.601257 3047.266113,744.043945 3025.766846,763.605835 
	C2986.038818,799.753662 2962.540283,844.736633 2954.755615,897.382874 
	C2946.659912,952.135437 2951.761230,1005.734131 2978.157959,1055.412354 
	C3009.535400,1114.464966 3058.104980,1152.218628 3123.417969,1167.598267 
	C3150.751709,1174.034546 3178.671387,1176.365601 3206.589600,1173.497070 
	C3271.251221,1166.853394 3324.991455,1140.156250 3362.835938,1085.546143 
	C3373.047607,1070.810669 3386.683350,1067.306396 3402.601318,1075.642212 
	C3411.431641,1080.266235 3420.005859,1085.379883 3429.299805,1090.689575 
z"/>
<path fill="#002CB8" opacity="1.000000" stroke="none" 
	d="
M4889.668945,618.000122 
	C4889.668945,675.637756 4889.668945,732.275391 4889.668945,790.463501 
	C4893.337402,787.615112 4896.081055,785.569458 4898.733887,783.411987 
	C4928.325195,759.348633 4962.367676,745.048523 4999.621094,738.362549 
	C5041.064941,730.924500 5082.345703,732.056824 5122.795410,744.351685 
	C5177.302246,760.919312 5218.212402,794.287659 5244.761230,845.011108 
	C5260.881836,875.810730 5269.825684,908.578552 5272.266602,943.127258 
	C5273.390137,959.024902 5274.211426,974.981079 5274.244141,990.912598 
	C5274.428711,1081.244751 5274.305176,1171.577637 5274.375977,1261.910278 
	C5274.383301,1271.147583 5273.219238,1279.826538 5266.570312,1286.906738 
	C5261.048340,1292.787476 5254.413574,1295.772095 5246.212891,1295.725952 
	C5221.880859,1295.588989 5197.528809,1295.106445 5173.220215,1295.874023 
	C5156.498535,1296.401978 5143.334961,1282.775513 5143.427734,1265.819702 
	C5143.930664,1174.156494 5143.893066,1082.488281 5143.534668,990.823669 
	C5143.420410,961.701172 5138.574219,933.286926 5125.224609,906.885254 
	C5104.024414,864.955200 5069.264648,843.973938 5022.994629,841.801453 
	C4989.510254,840.229309 4959.104492,849.144226 4933.806152,872.085754 
	C4919.245117,885.290283 4909.233398,901.697815 4902.167969,919.906189 
	C4893.031738,943.450928 4889.739746,968.076477 4889.710938,993.151733 
	C4889.604980,1083.817505 4889.673340,1174.483643 4889.666016,1265.149536 
	C4889.664551,1285.088013 4878.972168,1295.654175 4858.775391,1295.672241 
	C4835.442383,1295.693115 4812.086914,1295.054810 4788.782715,1295.875488 
	C4770.400391,1296.522705 4758.104980,1282.395996 4758.126953,1265.660889 
	C4758.429688,1036.329712 4758.456055,806.997864 4758.098145,577.666870 
	C4758.068848,558.977722 4773.051270,546.645203 4788.681641,547.373596 
	C4812.629395,548.489624 4836.667480,547.624023 4860.667480,547.680664 
	C4878.796387,547.723389 4889.585449,558.661438 4889.658691,577.002258 
	C4889.711914,590.334656 4889.668945,603.667480 4889.668945,618.000122 
z"/>
<path fill="#012DB8" opacity="1.000000" stroke="none" 
	d="
M4355.889648,1151.955811 
	C4374.755859,1176.638916 4400.340332,1187.460693 4429.530762,1189.946045 
	C4451.814453,1191.843506 4474.100098,1190.469238 4495.276855,1181.798462 
	C4508.866211,1176.234131 4520.604492,1168.469116 4527.366211,1154.815063 
	C4536.008301,1137.364868 4532.157715,1118.615845 4517.344238,1106.133911 
	C4504.640137,1095.428955 4489.690918,1088.814941 4474.070312,1084.062256 
	C4446.431152,1075.652832 4418.564941,1067.986328 4390.765137,1060.108765 
	C4355.515137,1050.119751 4320.663086,1039.105591 4289.131836,1019.804932 
	C4258.038086,1000.771545 4234.251465,975.474854 4223.612793,939.822571 
	C4203.672363,872.999817 4225.002930,808.125916 4284.938477,766.785706 
	C4316.528320,744.996460 4351.839355,732.942505 4389.567871,727.986267 
	C4406.302734,725.787903 4423.320801,724.145142 4440.150879,724.576477 
	C4486.170898,725.755920 4530.578613,733.957947 4570.555176,758.837646 
	C4610.335449,783.595215 4635.715820,818.876648 4647.749512,863.860657 
	C4650.133301,872.773254 4651.143555,882.096313 4652.263672,891.293823 
	C4653.780762,903.756165 4640.786133,918.398132 4625.953125,918.355347 
	C4599.621582,918.279419 4573.288574,918.470764 4546.958496,918.265198 
	C4536.028809,918.179871 4528.002930,912.884766 4523.274902,902.908386 
	C4522.280273,900.809875 4521.221680,898.683960 4520.645996,896.453491 
	C4513.264160,867.848145 4494.101562,851.124756 4466.466797,843.464294 
	C4436.751953,835.227356 4407.269531,836.640808 4378.611328,848.130005 
	C4359.167480,855.924988 4348.966797,872.211060 4349.688965,892.645264 
	C4350.237305,908.148560 4359.385254,918.366272 4371.269043,926.606201 
	C4387.328125,937.741211 4405.605957,944.063599 4424.076172,949.664368 
	C4458.085449,959.977173 4492.405762,969.299744 4526.243164,980.138611 
	C4556.143555,989.716614 4584.403320,1002.942444 4608.967285,1023.141846 
	C4639.237305,1048.034180 4656.177734,1079.829346 4660.420410,1118.799316 
	C4665.100098,1161.783325 4653.399902,1199.755005 4626.128418,1232.852905 
	C4605.115234,1258.355469 4577.898926,1275.376587 4547.278809,1287.102417 
	C4504.488281,1303.488647 4459.893555,1307.247681 4414.781738,1303.406494 
	C4368.714355,1299.483765 4325.528809,1285.706909 4287.408691,1258.698730 
	C4247.933105,1230.729492 4221.163574,1194.002075 4210.687500,1146.021973 
	C4206.205566,1125.495972 4221.221680,1109.431519 4239.476562,1109.605835 
	C4265.139160,1109.850952 4290.808594,1109.443604 4316.470215,1109.749023 
	C4332.508301,1109.939819 4340.715332,1116.799927 4346.004883,1131.692749 
	C4348.424805,1138.506348 4352.310059,1144.799805 4355.889648,1151.955811 
z"/>
<path fill="#70BAF7" opacity="1.000000" stroke="none" 
	d="
M1595.872803,971.838562 
	C1595.871094,946.874512 1597.145264,922.798157 1595.522949,898.918457 
	C1590.208862,820.694092 1572.544434,745.339600 1540.006470,673.739929 
	C1534.228027,661.024231 1527.208618,648.703247 1522.966797,635.492126 
	C1512.742188,603.646851 1524.201904,571.549500 1554.253418,555.297852 
	C1582.428833,540.060669 1619.744751,547.966797 1638.312866,574.206848 
	C1646.104126,585.217346 1651.502197,598.027344 1657.238403,610.367859 
	C1683.422119,666.697754 1702.505859,725.341370 1714.288940,786.377930 
	C1719.831177,815.086304 1724.675659,843.861084 1726.214355,873.094360 
	C1727.522949,897.959534 1729.809692,922.853027 1729.466797,947.703674 
	C1729.101196,974.198059 1726.463867,1000.682495 1724.269897,1027.125732 
	C1720.466064,1072.972290 1710.627808,1117.694580 1697.975464,1161.828247 
	C1688.613159,1194.484985 1676.802368,1226.280396 1663.124023,1257.361084 
	C1657.362061,1270.453613 1651.009033,1283.290894 1644.746094,1296.157227 
	C1632.975464,1320.338989 1612.771484,1332.635376 1586.671753,1333.522705 
	C1552.697876,1334.678101 1524.449829,1309.907959 1519.654663,1277.323608 
	C1517.425659,1262.176880 1519.977173,1248.144653 1526.749634,1234.955078 
	C1556.467407,1177.077393 1575.963501,1115.810791 1587.341675,1051.944702 
	C1590.768311,1032.710693 1592.048950,1013.089722 1594.176636,993.631165 
	C1594.932739,986.715576 1595.285400,979.755859 1595.872803,971.838562 
z"/>
<path fill="#70BAF7" opacity="1.000000" stroke="none" 
	d="
M1494.356934,781.601685 
	C1501.768799,805.941528 1506.296143,830.064697 1510.130127,854.365051 
	C1516.220581,892.966614 1517.381836,931.801697 1515.703613,970.731201 
	C1514.473267,999.270081 1510.639526,1027.541748 1505.086182,1055.582642 
	C1496.583618,1098.514526 1482.539795,1139.621460 1465.032593,1179.650757 
	C1450.927002,1211.902588 1410.294189,1229.477295 1375.272827,1213.073608 
	C1341.436646,1197.225098 1328.895630,1155.247559 1344.110718,1123.123169 
	C1360.994385,1087.475464 1371.863525,1049.845459 1378.117554,1010.881409 
	C1382.819702,981.586304 1384.927856,952.088379 1383.638794,922.487427 
	C1382.497803,896.284912 1378.936157,870.307556 1373.350464,844.619446 
	C1366.535522,813.279358 1355.729736,783.324829 1342.860352,754.040710 
	C1332.344482,730.111694 1336.798706,697.312805 1363.042358,675.756226 
	C1383.342407,659.081787 1416.122437,656.958618 1439.795776,672.205994 
	C1449.330688,678.347290 1457.375122,686.409424 1462.569092,696.885742 
	C1475.916504,723.807556 1485.809204,752.021790 1494.356934,781.601685 
z"/>
<path fill="#4162CA" opacity="1.000000" stroke="none" 
	d="
M3985.537598,827.820312 
	C3986.299805,828.945862 3986.667969,829.913269 3987.036133,830.880737 
	C3986.061279,830.190125 3985.086182,829.499451 3984.206055,828.183533 
	C3984.300537,827.558228 3985.143555,827.662170 3985.537598,827.820312 
z"/>
<path fill="#FEFEFF" opacity="1.000000" stroke="none" 
	d="
M3794.932129,1183.421875 
	C3745.855225,1169.672241 3713.379150,1138.107910 3694.052246,1092.955688 
	C3670.930908,1038.939209 3670.683838,984.197510 3694.831299,930.446411 
	C3724.951172,863.401184 3789.031250,833.392334 3852.965088,843.596558 
	C3919.775146,854.259827 3961.308105,894.539307 3979.248291,958.479248 
	C3992.259277,1004.850891 3990.212402,1051.578613 3970.186523,1095.965454 
	C3947.037354,1147.276001 3907.284180,1177.920044 3851.077148,1186.356079 
	C3832.410156,1189.157959 3814.032959,1187.529175 3794.932129,1183.421875 
z"/>
</svg>