<svg version="1.1" id="Layer_1" xmlns="http://www.w3.org/2000/svg" xmlns:xlink="http://www.w3.org/1999/xlink" x="0px" y="0px"
	 width="100%" viewBox="0 0 4216 2371" enable-background="new 0 0 4216 2371" xml:space="preserve">
<path fill="#FFFFFF" opacity="0.000000" stroke="none" 
	d="
M2752.000000,2374.000000 
	C1834.666992,2374.000000 918.333862,2374.000000 2.000615,2374.000000 
	C2.000410,1583.333862 2.000410,792.667664 2.000205,2.001145 
	C1407.332397,2.000763 2812.664795,2.000763 4217.998047,2.000382 
	C4217.998535,792.665527 4217.998535,1583.331055 4217.999023,2373.998291 
	C3729.666748,2374.000000 3241.333252,2374.000000 2752.000000,2374.000000 
M1339.286499,960.377869 
	C1314.749878,973.878296 1295.863037,993.183838 1281.620850,1017.092041 
	C1268.291016,1039.468628 1260.033325,1063.631226 1259.875122,1089.805908 
	C1259.488647,1153.785645 1259.695679,1217.769165 1259.665894,1281.751099 
	C1259.665527,1282.417480 1259.656372,1283.086548 1259.710449,1283.749634 
	C1260.332153,1291.385498 1262.668335,1293.789917 1270.159424,1294.274170 
	C1272.815186,1294.445923 1275.489502,1294.340088 1278.155396,1294.339600 
	C1295.817261,1294.336304 1313.480347,1294.454102 1331.140259,1294.263428 
	C1339.341553,1294.174927 1341.742920,1291.615479 1342.279297,1283.491577 
	C1342.454590,1280.836426 1342.347778,1278.161621 1342.347900,1275.495850 
	C1342.350586,1218.844482 1342.141479,1162.191772 1342.532104,1105.543091 
	C1342.606934,1094.674805 1344.327515,1083.672607 1346.581299,1073.005371 
	C1348.796143,1062.522705 1353.852417,1052.952515 1361.141113,1044.917725 
	C1377.301514,1027.103394 1397.362061,1019.953491 1421.240356,1023.311157 
	C1444.377197,1026.564697 1461.115967,1038.443359 1471.821411,1059.296265 
	C1478.089111,1071.505371 1480.238037,1084.455322 1480.267700,1097.864868 
	C1480.376221,1146.851318 1480.277222,1195.838257 1480.337524,1244.824951 
	C1480.353027,1257.421875 1483.792969,1260.880127 1496.249512,1260.976440 
	C1511.244629,1261.092285 1526.241089,1261.020142 1541.237061,1261.008667 
	C1559.241211,1260.994873 1561.672363,1258.514893 1561.677368,1240.028687 
	C1561.690674,1191.041992 1561.644653,1142.055054 1561.736572,1093.068604 
	C1561.745972,1088.111206 1561.871704,1082.988892 1563.069092,1078.225952 
	C1571.017456,1046.608154 1590.402710,1027.118652 1623.481934,1023.125916 
	C1648.657959,1020.087097 1669.443115,1028.499390 1684.217041,1049.326050 
	C1693.866455,1062.928589 1698.336670,1078.522705 1698.323364,1095.340698 
	C1698.276367,1155.324463 1698.302612,1215.308228 1698.312866,1275.291992 
	C1698.313354,1278.288696 1698.115356,1281.331177 1698.549927,1284.272583 
	C1699.476562,1290.543457 1702.899780,1294.109009 1709.084839,1294.179565 
	C1730.075928,1294.418823 1751.072754,1294.409790 1772.064331,1294.196411 
	C1777.868530,1294.137451 1781.218506,1290.754395 1782.074951,1285.036865 
	C1782.515503,1282.096680 1782.331299,1279.054199 1782.331909,1276.057983 
	C1782.344482,1217.073975 1782.427979,1158.089600 1782.252686,1099.106079 
	C1782.226074,1090.162231 1781.658447,1081.109253 1780.187134,1072.299316 
	C1772.826538,1028.220459 1751.366577,992.281555 1714.770996,966.672180 
	C1685.694336,946.324463 1652.902344,938.703735 1617.191650,943.329773 
	C1591.511963,946.656433 1568.304810,955.469604 1547.313354,970.297913 
	C1541.163330,974.642212 1535.662109,979.905029 1529.738281,984.851501 
	C1534.099731,993.682495 1537.939087,1001.401611 1541.724487,1009.147095 
	C1543.252319,1012.273254 1544.715332,1015.472839 1539.540527,1016.702454 
	C1489.341675,938.365295 1400.442383,925.877808 1339.286499,960.377869 
M2225.650146,1122.819458 
	C2224.660156,1145.422607 2228.391846,1167.264160 2236.620361,1188.293091 
	C2266.587402,1264.877563 2341.045166,1308.903198 2427.149414,1290.770630 
	C2449.584473,1286.046387 2469.897461,1276.309692 2488.758789,1263.357056 
	C2491.699951,1261.337280 2494.293457,1257.667114 2500.500977,1259.248047 
	C2495.114990,1266.747192 2490.599365,1273.565186 2485.521484,1279.934692 
	C2481.571533,1284.889038 2479.891602,1290.086914 2480.223389,1296.422607 
	C2481.020752,1311.646362 2474.160889,1323.444214 2462.460938,1332.502441 
	C2446.819580,1344.612305 2428.894287,1351.469482 2409.316162,1353.624023 
	C2400.078369,1354.640625 2390.721191,1354.654297 2381.412354,1354.915283 
	C2369.682129,1355.244141 2366.391846,1358.262085 2366.332764,1369.632690 
	C2366.247803,1385.962158 2366.244385,1402.292847 2366.334961,1418.622314 
	C2366.389893,1428.501221 2370.232178,1432.619263 2380.046875,1432.965942 
	C2388.367920,1433.260010 2396.715820,1433.267456 2405.037842,1432.987915 
	C2435.394531,1431.968384 2464.427002,1425.771118 2490.927490,1410.198242 
	C2521.651611,1392.143555 2541.407959,1365.423096 2551.816895,1331.709229 
	C2557.751709,1312.485107 2559.092529,1292.553833 2559.058105,1272.504883 
	C2558.988037,1231.513428 2559.037842,1190.521729 2559.036865,1149.530151 
	C2559.035645,1087.876221 2559.062012,1026.222168 2559.007080,964.568237 
	C2558.996094,952.281494 2556.060547,949.209229 2543.729492,949.054688 
	C2526.402344,948.837463 2509.068359,948.826843 2491.741699,949.058716 
	C2478.908691,949.230408 2476.322021,952.160767 2476.317139,965.295776 
	C2476.299316,1012.952637 2476.464844,1060.610352 2476.201904,1108.265747 
	C2476.132324,1120.855469 2475.265381,1133.492676 2473.880371,1146.010132 
	C2472.156250,1161.598145 2465.428467,1175.227783 2455.349365,1187.215942 
	C2440.067383,1205.392456 2419.802490,1213.949341 2396.835938,1215.715942 
	C2358.593262,1218.657471 2327.003906,1199.788330 2314.082275,1162.220947 
	C2309.447266,1148.746094 2308.505615,1134.854736 2308.441406,1120.913086 
	C2308.208008,1070.257812 2308.349609,1019.600891 2308.344482,968.944641 
	C2308.343994,965.945557 2308.296631,962.946411 2308.271240,959.947327 
	C2308.228027,954.897888 2305.339355,951.785278 2300.890137,950.399170 
	C2297.776123,949.429199 2294.365479,949.080505 2291.081055,949.045959 
	C2277.418945,948.902161 2263.753906,948.974854 2250.090088,948.985291 
	C2245.425049,948.988831 2240.737549,948.765808 2236.099854,949.137573 
	C2228.863525,949.717651 2226.136230,952.697327 2225.711182,959.897766 
	C2225.554199,962.555237 2225.651855,965.228455 2225.651855,967.894470 
	C2225.649414,1018.883972 2225.650146,1069.873535 2225.650146,1122.819458 
M1815.058716,1088.042725 
	C1814.145264,1101.966431 1812.617798,1115.883057 1812.460815,1129.815308 
	C1812.218018,1151.375732 1817.150757,1172.116089 1825.586426,1191.866577 
	C1838.947632,1223.148926 1859.305786,1248.977661 1887.300781,1268.574829 
	C1928.538818,1297.442261 1973.924194,1308.015259 2023.494629,1298.646729 
	C2059.611572,1291.820679 2089.805664,1273.840332 2115.407715,1247.769165 
	C2117.354004,1245.787354 2119.563232,1244.063599 2121.842773,1242.049561 
	C2125.064453,1246.255859 2122.109375,1248.493652 2120.768066,1250.809692 
	C2116.436279,1258.287842 2111.449951,1265.416260 2107.528564,1273.094482 
	C2103.001221,1281.959961 2107.551514,1294.564087 2116.033447,1294.381348 
	C2135.682861,1293.957886 2155.347900,1294.283203 2175.005859,1294.176636 
	C2179.927490,1294.150024 2183.142822,1291.324829 2184.391602,1286.667969 
	C2185.155029,1283.821411 2185.627441,1280.802002 2185.629150,1277.859741 
	C2185.690918,1173.560913 2185.703857,1069.261963 2185.651123,964.963074 
	C2185.645264,953.090698 2181.879639,949.176697 2170.282471,949.042725 
	C2153.623535,948.850281 2136.959717,949.108215 2120.299805,948.968018 
	C2107.947510,948.864075 2103.171387,956.017700 2107.274902,970.320007 
	C2107.981445,972.782837 2109.959717,974.882690 2111.360840,977.143921 
	C2115.042725,983.085815 2118.726318,989.026855 2122.417969,994.962769 
	C2124.099121,997.666077 2124.178223,999.933289 2120.365967,1001.464600 
	C2119.023438,1000.325928 2117.505371,999.080383 2116.032715,997.783081 
	C2107.816406,990.544861 2100.031250,982.740356 2091.331299,976.140808 
	C2048.851074,943.916626 2000.697998,933.860474 1949.753784,946.981140 
	C1877.291748,965.643616 1832.534180,1013.224487 1815.058716,1088.042725 
M2963.681641,991.002930 
	C2963.679199,981.671387 2963.781738,972.338379 2963.646973,963.008728 
	C2963.490479,952.149292 2960.782959,949.202820 2950.098633,949.065430 
	C2933.105469,948.846863 2916.105469,948.815247 2899.113037,949.048096 
	C2888.021240,949.200012 2884.057617,953.705872 2885.114258,964.767578 
	C2885.413330,967.896912 2886.830078,971.120911 2888.448486,973.882996 
	C2892.482666,980.768005 2896.963867,987.389709 2901.190674,994.163879 
	C2902.985840,997.041077 2903.591553,999.768127 2897.770752,1001.700439 
	C2896.153076,999.659119 2894.309326,996.844421 2891.996094,994.491272 
	C2873.299561,975.472168 2851.507568,961.158691 2826.424316,952.002747 
	C2801.304932,942.833557 2775.589844,940.309937 2748.918457,943.371582 
	C2724.317627,946.195557 2701.386963,953.636597 2680.343262,966.041321 
	C2614.850342,1004.646790 2579.105957,1079.586304 2594.319336,1156.991089 
	C2604.197510,1207.250122 2631.394531,1246.160889 2674.222900,1273.963257 
	C2696.846191,1288.649414 2721.796631,1296.703125 2748.697021,1300.443726 
	C2779.773438,1304.765015 2808.899414,1299.505859 2837.297607,1287.684937 
	C2859.436035,1278.469604 2878.280273,1264.413818 2894.976562,1247.321289 
	C2896.806396,1245.447754 2898.158691,1242.161377 2903.552979,1243.357422 
	C2901.615723,1247.107422 2900.162109,1250.233398 2898.434814,1253.200073 
	C2894.751221,1259.526611 2890.688965,1265.642700 2887.209229,1272.076050 
	C2880.552979,1284.381104 2886.132324,1294.227905 2899.702881,1294.317993 
	C2914.698486,1294.417603 2929.695312,1294.348877 2944.691650,1294.341553 
	C2962.595215,1294.332764 2963.678223,1293.233643 2963.679199,1274.933105 
	C2963.684082,1180.956055 2963.681641,1086.978882 2963.681641,991.002930 
z"/>
<path fill="#01B362" opacity="1.000000" stroke="none" 
	d="
M1339.910767,959.991333 
	C1400.442383,925.877808 1489.341675,938.365295 1539.540527,1016.702454 
	C1544.715332,1015.472839 1543.252319,1012.273254 1541.724487,1009.147095 
	C1537.939087,1001.401611 1534.099731,993.682495 1529.738281,984.851501 
	C1535.662109,979.905029 1541.163330,974.642212 1547.313354,970.297913 
	C1568.304810,955.469604 1591.511963,946.656433 1617.191650,943.329773 
	C1652.902344,938.703735 1685.694336,946.324463 1714.770996,966.672180 
	C1751.366577,992.281555 1772.826538,1028.220459 1780.187134,1072.299316 
	C1781.658447,1081.109253 1782.226074,1090.162231 1782.252686,1099.106079 
	C1782.427979,1158.089600 1782.344482,1217.073975 1782.331909,1276.057983 
	C1782.331299,1279.054199 1782.515503,1282.096680 1782.074951,1285.036865 
	C1781.218506,1290.754395 1777.868530,1294.137451 1772.064331,1294.196411 
	C1751.072754,1294.409790 1730.075928,1294.418823 1709.084839,1294.179565 
	C1702.899780,1294.109009 1699.476562,1290.543457 1698.549927,1284.272583 
	C1698.115356,1281.331177 1698.313354,1278.288696 1698.312866,1275.291992 
	C1698.302612,1215.308228 1698.276367,1155.324463 1698.323364,1095.340698 
	C1698.336670,1078.522705 1693.866455,1062.928589 1684.217041,1049.326050 
	C1669.443115,1028.499390 1648.657959,1020.087097 1623.481934,1023.125916 
	C1590.402710,1027.118652 1571.017456,1046.608154 1563.069092,1078.225952 
	C1561.871704,1082.988892 1561.745972,1088.111206 1561.736572,1093.068604 
	C1561.644653,1142.055054 1561.690674,1191.041992 1561.677368,1240.028687 
	C1561.672363,1258.514893 1559.241211,1260.994873 1541.237061,1261.008667 
	C1526.241089,1261.020142 1511.244629,1261.092285 1496.249512,1260.976440 
	C1483.792969,1260.880127 1480.353027,1257.421875 1480.337524,1244.824951 
	C1480.277222,1195.838257 1480.376221,1146.851318 1480.267700,1097.864868 
	C1480.238037,1084.455322 1478.089111,1071.505371 1471.821411,1059.296265 
	C1461.115967,1038.443359 1444.377197,1026.564697 1421.240356,1023.311157 
	C1397.362061,1019.953491 1377.301514,1027.103394 1361.141113,1044.917725 
	C1353.852417,1052.952515 1348.796143,1062.522705 1346.581299,1073.005371 
	C1344.327515,1083.672607 1342.606934,1094.674805 1342.532104,1105.543091 
	C1342.141479,1162.191772 1342.350586,1218.844482 1342.347900,1275.495850 
	C1342.347778,1278.161621 1342.454590,1280.836426 1342.279297,1283.491577 
	C1341.742920,1291.615479 1339.341553,1294.174927 1331.140259,1294.263428 
	C1313.480347,1294.454102 1295.817261,1294.336304 1278.155396,1294.339600 
	C1275.489502,1294.340088 1272.815186,1294.445923 1270.159424,1294.274170 
	C1262.668335,1293.789917 1260.332153,1291.385498 1259.710449,1283.749634 
	C1259.656372,1283.086548 1259.665527,1282.417480 1259.665894,1281.751099 
	C1259.695679,1217.769165 1259.488647,1153.785645 1259.875122,1089.805908 
	C1260.033325,1063.631226 1268.291016,1039.468628 1281.620850,1017.092041 
	C1295.863037,993.183838 1314.749878,973.878296 1339.910767,959.991333 
z"/>
<path fill="#01B262" opacity="1.000000" stroke="none" 
	d="
M2225.650146,1121.841309 
	C2225.650146,1069.873535 2225.649414,1018.883972 2225.651855,967.894470 
	C2225.651855,965.228455 2225.554199,962.555237 2225.711182,959.897766 
	C2226.136230,952.697327 2228.863525,949.717651 2236.099854,949.137573 
	C2240.737549,948.765808 2245.425049,948.988831 2250.090088,948.985291 
	C2263.753906,948.974854 2277.418945,948.902161 2291.081055,949.045959 
	C2294.365479,949.080505 2297.776123,949.429199 2300.890137,950.399170 
	C2305.339355,951.785278 2308.228027,954.897888 2308.271240,959.947327 
	C2308.296631,962.946411 2308.343994,965.945557 2308.344482,968.944641 
	C2308.349609,1019.600891 2308.208008,1070.257812 2308.441406,1120.913086 
	C2308.505615,1134.854736 2309.447266,1148.746094 2314.082275,1162.220947 
	C2327.003906,1199.788330 2358.593262,1218.657471 2396.835938,1215.715942 
	C2419.802490,1213.949341 2440.067383,1205.392456 2455.349365,1187.215942 
	C2465.428467,1175.227783 2472.156250,1161.598145 2473.880371,1146.010132 
	C2475.265381,1133.492676 2476.132324,1120.855469 2476.201904,1108.265747 
	C2476.464844,1060.610352 2476.299316,1012.952637 2476.317139,965.295776 
	C2476.322021,952.160767 2478.908691,949.230408 2491.741699,949.058716 
	C2509.068359,948.826843 2526.402344,948.837463 2543.729492,949.054688 
	C2556.060547,949.209229 2558.996094,952.281494 2559.007080,964.568237 
	C2559.062012,1026.222168 2559.035645,1087.876221 2559.036865,1149.530151 
	C2559.037842,1190.521729 2558.988037,1231.513428 2559.058105,1272.504883 
	C2559.092529,1292.553833 2557.751709,1312.485107 2551.816895,1331.709229 
	C2541.407959,1365.423096 2521.651611,1392.143555 2490.927490,1410.198242 
	C2464.427002,1425.771118 2435.394531,1431.968384 2405.037842,1432.987915 
	C2396.715820,1433.267456 2388.367920,1433.260010 2380.046875,1432.965942 
	C2370.232178,1432.619263 2366.389893,1428.501221 2366.334961,1418.622314 
	C2366.244385,1402.292847 2366.247803,1385.962158 2366.332764,1369.632690 
	C2366.391846,1358.262085 2369.682129,1355.244141 2381.412354,1354.915283 
	C2390.721191,1354.654297 2400.078369,1354.640625 2409.316162,1353.624023 
	C2428.894287,1351.469482 2446.819580,1344.612305 2462.460938,1332.502441 
	C2474.160889,1323.444214 2481.020752,1311.646362 2480.223389,1296.422607 
	C2479.891602,1290.086914 2481.571533,1284.889038 2485.521484,1279.934692 
	C2490.599365,1273.565186 2495.114990,1266.747192 2500.500977,1259.248047 
	C2494.293457,1257.667114 2491.699951,1261.337280 2488.758789,1263.357056 
	C2469.897461,1276.309692 2449.584473,1286.046387 2427.149414,1290.770630 
	C2341.045166,1308.903198 2266.587402,1264.877563 2236.620361,1188.293091 
	C2228.391846,1167.264160 2224.660156,1145.422607 2225.650146,1121.841309 
M2500.342041,1254.862183 
	C2500.526855,1255.702148 2500.711670,1256.542114 2500.896484,1257.382202 
	C2501.192139,1256.474365 2501.487549,1255.566528 2500.342041,1254.862183 
z"/>
<path fill="#01B362" opacity="1.000000" stroke="none" 
	d="
M1815.270874,1087.212158 
	C1832.534180,1013.224487 1877.291748,965.643616 1949.753784,946.981140 
	C2000.697998,933.860474 2048.851074,943.916626 2091.331299,976.140808 
	C2100.031250,982.740356 2107.816406,990.544861 2116.032715,997.783081 
	C2117.505371,999.080383 2119.023438,1000.325928 2120.365967,1001.464600 
	C2124.178223,999.933289 2124.099121,997.666077 2122.417969,994.962769 
	C2118.726318,989.026855 2115.042725,983.085815 2111.360840,977.143921 
	C2109.959717,974.882690 2107.981445,972.782837 2107.274902,970.320007 
	C2103.171387,956.017700 2107.947510,948.864075 2120.299805,948.968018 
	C2136.959717,949.108215 2153.623535,948.850281 2170.282471,949.042725 
	C2181.879639,949.176697 2185.645264,953.090698 2185.651123,964.963074 
	C2185.703857,1069.261963 2185.690918,1173.560913 2185.629150,1277.859741 
	C2185.627441,1280.802002 2185.155029,1283.821411 2184.391602,1286.667969 
	C2183.142822,1291.324829 2179.927490,1294.150024 2175.005859,1294.176636 
	C2155.347900,1294.283203 2135.682861,1293.957886 2116.033447,1294.381348 
	C2107.551514,1294.564087 2103.001221,1281.959961 2107.528564,1273.094482 
	C2111.449951,1265.416260 2116.436279,1258.287842 2120.768066,1250.809692 
	C2122.109375,1248.493652 2125.064453,1246.255859 2121.842773,1242.049561 
	C2119.563232,1244.063599 2117.354004,1245.787354 2115.407715,1247.769165 
	C2089.805664,1273.840332 2059.611572,1291.820679 2023.494629,1298.646729 
	C1973.924194,1308.015259 1928.538818,1297.442261 1887.300781,1268.574829 
	C1859.305786,1248.977661 1838.947632,1223.148926 1825.586426,1191.866577 
	C1817.150757,1172.116089 1812.218018,1151.375732 1812.460815,1129.815308 
	C1812.617798,1115.883057 1814.145264,1101.966431 1815.270874,1087.212158 
M1894.567505,1151.936523 
	C1895.839111,1155.716309 1896.888550,1159.588623 1898.417603,1163.261230 
	C1910.732056,1192.838745 1932.347412,1211.898071 1963.395874,1219.938721 
	C1978.650269,1223.889038 1994.059204,1224.733521 2009.751099,1222.012329 
	C2042.690918,1216.300293 2067.724365,1199.662354 2082.778320,1169.491089 
	C2092.847168,1149.311768 2095.785645,1127.741943 2092.147705,1105.471802 
	C2087.232178,1075.381226 2072.960449,1051.236206 2046.327881,1035.265381 
	C2025.342529,1022.681152 2002.734253,1018.828308 1978.461060,1021.440552 
	C1944.784058,1025.064819 1919.438599,1041.361694 1903.393311,1070.753906 
	C1889.781738,1095.687866 1888.230713,1122.728638 1894.567505,1151.936523 
z"/>
<path fill="#01B362" opacity="1.000000" stroke="none" 
	d="
M2963.681641,992.002380 
	C2963.681641,1086.978882 2963.684082,1180.956055 2963.679199,1274.933105 
	C2963.678223,1293.233643 2962.595215,1294.332764 2944.691650,1294.341553 
	C2929.695312,1294.348877 2914.698486,1294.417603 2899.702881,1294.317993 
	C2886.132324,1294.227905 2880.552979,1284.381104 2887.209229,1272.076050 
	C2890.688965,1265.642700 2894.751221,1259.526611 2898.434814,1253.200073 
	C2900.162109,1250.233398 2901.615723,1247.107422 2903.552979,1243.357422 
	C2898.158691,1242.161377 2896.806396,1245.447754 2894.976562,1247.321289 
	C2878.280273,1264.413818 2859.436035,1278.469604 2837.297607,1287.684937 
	C2808.899414,1299.505859 2779.773438,1304.765015 2748.697021,1300.443726 
	C2721.796631,1296.703125 2696.846191,1288.649414 2674.222900,1273.963257 
	C2631.394531,1246.160889 2604.197510,1207.250122 2594.319336,1156.991089 
	C2579.105957,1079.586304 2614.850342,1004.646790 2680.343262,966.041321 
	C2701.386963,953.636597 2724.317627,946.195557 2748.918457,943.371582 
	C2775.589844,940.309937 2801.304932,942.833557 2826.424316,952.002747 
	C2851.507568,961.158691 2873.299561,975.472168 2891.996094,994.491272 
	C2894.309326,996.844421 2896.153076,999.659119 2897.770752,1001.700439 
	C2903.591553,999.768127 2902.985840,997.041077 2901.190674,994.163879 
	C2896.963867,987.389709 2892.482666,980.768005 2888.448486,973.882996 
	C2886.830078,971.120911 2885.413330,967.896912 2885.114258,964.767578 
	C2884.057617,953.705872 2888.021240,949.200012 2899.113037,949.048096 
	C2916.105469,948.815247 2933.105469,948.846863 2950.098633,949.065430 
	C2960.782959,949.202820 2963.490479,952.149292 2963.646973,963.008728 
	C2963.781738,972.338379 2963.679199,981.671387 2963.681641,992.002380 
M2824.340576,1034.488770 
	C2803.037842,1022.640198 2780.396729,1018.550354 2756.146240,1021.563232 
	C2725.882812,1025.323120 2701.956543,1039.101318 2685.944092,1065.164673 
	C2669.236328,1092.360352 2665.755127,1121.652954 2674.166504,1152.437378 
	C2682.642090,1183.456299 2701.716797,1204.918823 2731.734131,1216.470337 
	C2755.557373,1225.637939 2779.728516,1225.845825 2803.991943,1218.360107 
	C2827.859619,1210.996338 2846.376709,1196.769653 2858.993164,1175.009033 
	C2869.517822,1156.855835 2873.507324,1137.139648 2872.205566,1116.503296 
	C2870.024414,1081.928223 2856.009277,1053.820068 2824.340576,1034.488770 
z"/>
<path fill="#FFFFFF" opacity="0.000000" stroke="none" 
	d="
M2501.062500,1254.760498 
	C2501.487549,1255.566528 2501.192139,1256.474365 2500.896484,1257.382202 
	C2500.711670,1256.542114 2500.526855,1255.702148 2501.062500,1254.760498 
z"/>
<path fill="#FFFFFF" opacity="0.000000" stroke="none" 
	d="
M1894.431152,1151.110352 
	C1888.230713,1122.728638 1889.781738,1095.687866 1903.393311,1070.753906 
	C1919.438599,1041.361694 1944.784058,1025.064819 1978.461060,1021.440552 
	C2002.734253,1018.828308 2025.342529,1022.681152 2046.327881,1035.265381 
	C2072.960449,1051.236206 2087.232178,1075.381226 2092.147705,1105.471802 
	C2095.785645,1127.741943 2092.847168,1149.311768 2082.778320,1169.491089 
	C2067.724365,1199.662354 2042.690918,1216.300293 2009.751099,1222.012329 
	C1994.059204,1224.733521 1978.650269,1223.889038 1963.395874,1219.938721 
	C1932.347412,1211.898071 1910.732056,1192.838745 1898.417603,1163.261230 
	C1896.888550,1159.588623 1895.839111,1155.716309 1894.431152,1151.110352 
z"/>
<path fill="#FFFFFF" opacity="0.000000" stroke="none" 
	d="
M2824.930908,1034.926270 
	C2856.009277,1053.820068 2870.024414,1081.928223 2872.205566,1116.503296 
	C2873.507324,1137.139648 2869.517822,1156.855835 2858.993164,1175.009033 
	C2846.376709,1196.769653 2827.859619,1210.996338 2803.991943,1218.360107 
	C2779.728516,1225.845825 2755.557373,1225.637939 2731.734131,1216.470337 
	C2701.716797,1204.918823 2682.642090,1183.456299 2674.166504,1152.437378 
	C2665.755127,1121.652954 2669.236328,1092.360352 2685.944092,1065.164673 
	C2701.956543,1039.101318 2725.882812,1025.323120 2756.146240,1021.563232 
	C2780.396729,1018.550354 2803.037842,1022.640198 2824.930908,1034.926270 
z"/>
</svg>